<svg width="270" height="36" viewBox="0 0 270 36" fill="none" xmlns="http://www.w3.org/2000/svg">
<path d="M18.5379 29V9.19997H23.7579V12.98H23.8659C24.1299 11.684 24.7419 10.676 25.7019 9.95597C26.6859 9.21197 27.9219 8.83997 29.4099 8.83997C31.4259 8.83997 33.0459 9.52397 34.2699 10.892C35.4939 12.236 36.1059 14.072 36.1059 16.4V18.2H30.3459V16.76C30.3459 15.728 30.0699 14.936 29.5179 14.384C28.9899 13.808 28.2099 13.52 27.1779 13.52C25.0179 13.52 23.9379 14.744 23.9379 17.192V29H18.5379Z" fill="#00A6A7"/>
<path d="M45.4159 29.36C43.4239 29.36 41.8399 28.82 40.6639 27.74C39.5119 26.66 38.9359 25.196 38.9359 23.348C38.9359 21.332 39.6559 19.796 41.0959 18.74C42.5359 17.66 44.5999 17.12 47.2879 17.12H51.0679V15.68C51.0679 14.888 50.7919 14.276 50.2399 13.844C49.6879 13.412 48.9199 13.196 47.9359 13.196C46.9759 13.196 46.2079 13.388 45.6319 13.772C45.0799 14.156 44.8039 14.672 44.8039 15.32H39.7639C39.8119 13.328 40.5919 11.756 42.1039 10.604C43.6159 9.42797 45.6319 8.83997 48.1519 8.83997C50.7199 8.83997 52.7479 9.45197 54.2359 10.676C55.7239 11.876 56.4679 13.544 56.4679 15.68V29H51.2479V25.94H51.1399C50.8039 27.02 50.1439 27.86 49.1599 28.46C48.1759 29.06 46.9279 29.36 45.4159 29.36ZM47.4319 25.436C48.4879 25.436 49.3519 25.16 50.0239 24.608C50.7199 24.056 51.0679 23.324 51.0679 22.412V20.324H47.3959C46.4359 20.324 45.6799 20.552 45.1279 21.008C44.5999 21.44 44.3359 22.052 44.3359 22.844C44.3359 23.66 44.6119 24.296 45.1639 24.752C45.7159 25.208 46.4719 25.436 47.4319 25.436Z" fill="#00A6A7"/>
<path d="M61.1338 29V9.19997H66.3538V12.98H66.4618C66.7018 11.708 67.2778 10.7 68.1898 9.95597C69.1018 9.21197 70.2658 8.83997 71.6818 8.83997C73.6018 8.83997 75.1378 9.51197 76.2898 10.856C77.4658 12.2 78.0538 13.988 78.0538 16.22V29H72.6538V16.76C72.6538 15.728 72.3778 14.936 71.8258 14.384C71.2978 13.808 70.5538 13.52 69.5938 13.52C68.6338 13.52 67.8778 13.808 67.3258 14.384C66.7978 14.936 66.5338 15.728 66.5338 16.76V29H61.1338Z" fill="#00A6A7"/>
<path d="M93.1957 29.36C91.8277 29.36 90.6757 29.036 89.7397 28.388C88.8277 27.716 88.2277 26.78 87.9397 25.58V29H82.7197V2.71997H88.1197V8.11997L87.9397 12.584C88.2517 11.384 88.8637 10.46 89.7757 9.81197C90.7117 9.16397 91.8517 8.83997 93.1957 8.83997C95.1877 8.83997 96.7837 9.54797 97.9837 10.964C99.1837 12.356 99.7837 14.228 99.7837 16.58V21.62C99.7837 23.996 99.1837 25.88 97.9837 27.272C96.7837 28.664 95.1877 29.36 93.1957 29.36ZM91.2517 24.68C92.2597 24.68 93.0277 24.404 93.5557 23.852C94.1077 23.276 94.3837 22.472 94.3837 21.44V16.76C94.3837 15.728 94.1077 14.936 93.5557 14.384C93.0277 13.808 92.2597 13.52 91.2517 13.52C90.2677 13.52 89.4997 13.808 88.9477 14.384C88.3957 14.936 88.1197 15.728 88.1197 16.76V21.44C88.1197 22.472 88.3957 23.276 88.9477 23.852C89.4997 24.404 90.2677 24.68 91.2517 24.68Z" fill="#00A6A7"/>
<path d="M110.174 29.36C108.182 29.36 106.598 28.82 105.422 27.74C104.27 26.66 103.694 25.196 103.694 23.348C103.694 21.332 104.414 19.796 105.854 18.74C107.294 17.66 109.358 17.12 112.046 17.12H115.826V15.68C115.826 14.888 115.55 14.276 114.998 13.844C114.446 13.412 113.678 13.196 112.694 13.196C111.734 13.196 110.966 13.388 110.39 13.772C109.838 14.156 109.562 14.672 109.562 15.32H104.522C104.57 13.328 105.35 11.756 106.862 10.604C108.374 9.42797 110.39 8.83997 112.91 8.83997C115.478 8.83997 117.506 9.45197 118.994 10.676C120.482 11.876 121.226 13.544 121.226 15.68V29H116.006V25.94H115.898C115.562 27.02 114.902 27.86 113.918 28.46C112.934 29.06 111.686 29.36 110.174 29.36ZM112.19 25.436C113.246 25.436 114.11 25.16 114.782 24.608C115.478 24.056 115.826 23.324 115.826 22.412V20.324H112.154C111.194 20.324 110.438 20.552 109.886 21.008C109.358 21.44 109.094 22.052 109.094 22.844C109.094 23.66 109.37 24.296 109.922 24.752C110.474 25.208 111.23 25.436 112.19 25.436Z" fill="#00A6A7"/>
<path d="M137.34 35.48V30.08L137.52 25.58H137.412C136.98 26.78 136.308 27.716 135.396 28.388C134.484 29.036 133.38 29.36 132.084 29.36C130.188 29.36 128.64 28.664 127.44 27.272C126.264 25.856 125.676 23.972 125.676 21.62V16.58C125.676 14.228 126.264 12.356 127.44 10.964C128.64 9.54797 130.188 8.83997 132.084 8.83997C133.38 8.83997 134.484 9.17597 135.396 9.84797C136.308 10.496 136.98 11.42 137.412 12.62H137.52V9.19997H142.74V35.48H137.34ZM134.172 24.68C135.204 24.68 135.984 24.392 136.512 23.816C137.064 23.216 137.34 22.364 137.34 21.26V16.94C137.34 15.836 137.064 14.996 136.512 14.42C135.984 13.82 135.204 13.52 134.172 13.52C133.188 13.52 132.42 13.796 131.868 14.348C131.34 14.9 131.076 15.704 131.076 16.76V21.44C131.076 22.472 131.34 23.276 131.868 23.852C132.42 24.404 133.188 24.68 134.172 24.68Z" fill="#00A6A7"/>
<path d="M155.902 29.36C153.238 29.36 151.15 28.64 149.638 27.2C148.15 25.76 147.406 23.792 147.406 21.296V9.19997H152.806V21.26C152.806 23.54 153.838 24.68 155.902 24.68C156.886 24.68 157.642 24.392 158.17 23.816C158.722 23.216 158.998 22.364 158.998 21.26V9.19997H164.398V21.296C164.398 23.816 163.642 25.796 162.13 27.236C160.618 28.652 158.542 29.36 155.902 29.36Z" fill="#00A6A7"/>
<path d="M174.931 29.36C172.939 29.36 171.355 28.82 170.179 27.74C169.027 26.66 168.451 25.196 168.451 23.348C168.451 21.332 169.171 19.796 170.611 18.74C172.051 17.66 174.115 17.12 176.803 17.12H180.583V15.68C180.583 14.888 180.307 14.276 179.755 13.844C179.203 13.412 178.435 13.196 177.451 13.196C176.491 13.196 175.723 13.388 175.147 13.772C174.595 14.156 174.319 14.672 174.319 15.32H169.279C169.327 13.328 170.107 11.756 171.619 10.604C173.131 9.42797 175.147 8.83997 177.667 8.83997C180.235 8.83997 182.263 9.45197 183.751 10.676C185.239 11.876 185.983 13.544 185.983 15.68V29H180.763V25.94H180.655C180.319 27.02 179.659 27.86 178.675 28.46C177.691 29.06 176.443 29.36 174.931 29.36ZM176.947 25.436C178.003 25.436 178.867 25.16 179.539 24.608C180.235 24.056 180.583 23.324 180.583 22.412V20.324H176.911C175.951 20.324 175.195 20.552 174.643 21.008C174.115 21.44 173.851 22.052 173.851 22.844C173.851 23.66 174.127 24.296 174.679 24.752C175.231 25.208 175.987 25.436 176.947 25.436Z" fill="#00A6A7"/>
<path d="M190.649 29V9.19997H195.869V12.98H195.977C196.217 11.708 196.793 10.7 197.705 9.95597C198.617 9.21197 199.781 8.83997 201.197 8.83997C203.117 8.83997 204.653 9.51197 205.805 10.856C206.981 12.2 207.569 13.988 207.569 16.22V29H202.169V16.76C202.169 15.728 201.893 14.936 201.341 14.384C200.813 13.808 200.069 13.52 199.109 13.52C198.149 13.52 197.393 13.808 196.841 14.384C196.313 14.936 196.049 15.728 196.049 16.76V29H190.649Z" fill="#00A6A7"/>
<path d="M6.95998 29C4.94398 29 3.35998 28.424 2.20798 27.272C1.05598 26.12 0.47998 24.536 0.47998 22.52V14.06V9.19997V3.61997H5.87998V9.19997H13.26V14.06H5.87998V22.34C5.87998 22.868 6.01198 23.3 6.27598 23.636C6.56398 23.972 6.97198 24.14 7.49998 24.14H12.9V29H6.95998Z" fill="#00A6A7"/>
<path d="M116.727 4.15966L107.892 5.87694C107.35 5.98232 106.996 6.50724 107.101 7.04938C107.206 7.59151 107.731 7.94558 108.274 7.84019L117.108 6.12291C117.65 6.01753 118.004 5.49262 117.899 4.95048C117.794 4.40834 117.269 4.05428 116.727 4.15966Z" fill="#00A6A7"/>
<path d="M77 4H20C19.4477 4 19 4.44772 19 5C19 5.55228 19.4477 6 20 6H77C77.5523 6 78 5.55228 78 5C78 4.44772 77.5523 4 77 4Z" fill="#00A6A7"/>
<path d="M211.215 26.5566C211.215 25.8066 211.473 25.1797 211.988 24.6758C212.516 24.1719 213.213 23.9199 214.08 23.9199C214.947 23.9199 215.639 24.1719 216.154 24.6758C216.682 25.1797 216.945 25.8066 216.945 26.5566C216.945 27.3066 216.682 27.9336 216.154 28.4375C215.639 28.9414 214.947 29.1934 214.08 29.1934C213.213 29.1934 212.516 28.9414 211.988 28.4375C211.473 27.9336 211.215 27.3066 211.215 26.5566Z" fill="#2A2E34"/>
<path d="M226.473 13.918V29H221.393V9.98047H226.156L226.473 13.918ZM225.77 18.8223H224.363C224.363 17.498 224.521 16.2793 224.838 15.166C225.166 14.041 225.641 13.0684 226.262 12.248C226.895 11.416 227.674 10.7715 228.6 10.3145C229.525 9.85742 230.598 9.62891 231.816 9.62891C232.66 9.62891 233.434 9.75781 234.137 10.0156C234.84 10.2617 235.443 10.6543 235.947 11.1934C236.463 11.7207 236.861 12.4121 237.143 13.2676C237.424 14.1113 237.564 15.125 237.564 16.3086V29H232.502V16.8711C232.502 16.0039 232.385 15.3359 232.15 14.8672C231.916 14.3984 231.582 14.0703 231.148 13.8828C230.727 13.6953 230.217 13.6016 229.619 13.6016C228.963 13.6016 228.389 13.7363 227.896 14.0059C227.416 14.2754 227.018 14.6504 226.701 15.1309C226.385 15.5996 226.15 16.1504 225.998 16.7832C225.846 17.416 225.77 18.0957 225.77 18.8223ZM237.09 18.2422L235.279 18.4707C235.279 17.2285 235.432 16.0742 235.736 15.0078C236.053 13.9414 236.516 13.0039 237.125 12.1953C237.746 11.3867 238.514 10.7598 239.428 10.3145C240.342 9.85742 241.396 9.62891 242.592 9.62891C243.506 9.62891 244.338 9.76367 245.088 10.0332C245.838 10.291 246.477 10.707 247.004 11.2812C247.543 11.8438 247.953 12.582 248.234 13.4961C248.527 14.4102 248.674 15.5293 248.674 16.8535V29H243.594V16.8535C243.594 15.9746 243.477 15.3066 243.242 14.8496C243.02 14.3809 242.691 14.0586 242.258 13.8828C241.836 13.6953 241.332 13.6016 240.746 13.6016C240.137 13.6016 239.603 13.7246 239.146 13.9707C238.689 14.2051 238.309 14.5332 238.004 14.9551C237.699 15.377 237.471 15.8691 237.318 16.4316C237.166 16.9824 237.09 17.5859 237.09 18.2422Z" fill="#2A2E34"/>
<path d="M261.348 29.3516C259.871 29.3516 258.547 29.1172 257.375 28.6484C256.203 28.168 255.207 27.5059 254.387 26.6621C253.578 25.8184 252.957 24.8398 252.523 23.7266C252.09 22.6016 251.873 21.4062 251.873 20.1406V19.4375C251.873 17.9961 252.078 16.6777 252.488 15.4824C252.898 14.2871 253.484 13.25 254.246 12.3711C255.02 11.4922 255.957 10.8184 257.059 10.3496C258.16 9.86914 259.402 9.62891 260.785 9.62891C262.133 9.62891 263.328 9.85156 264.371 10.2969C265.414 10.7422 266.287 11.375 266.99 12.1953C267.705 13.0156 268.244 14 268.607 15.1484C268.971 16.2852 269.152 17.5508 269.152 18.9453V21.0547H254.035V17.6797H264.178V17.293C264.178 16.5898 264.049 15.9629 263.791 15.4121C263.545 14.8496 263.17 14.4043 262.666 14.0762C262.162 13.748 261.518 13.584 260.732 13.584C260.064 13.584 259.49 13.7305 259.01 14.0234C258.529 14.3164 258.137 14.7266 257.832 15.2539C257.539 15.7812 257.316 16.4023 257.164 17.1172C257.023 17.8203 256.953 18.5938 256.953 19.4375V20.1406C256.953 20.9023 257.059 21.6055 257.27 22.25C257.492 22.8945 257.803 23.4512 258.201 23.9199C258.611 24.3887 259.103 24.752 259.678 25.0098C260.264 25.2676 260.926 25.3965 261.664 25.3965C262.578 25.3965 263.428 25.2207 264.213 24.8691C265.01 24.5059 265.695 23.9609 266.27 23.2344L268.73 25.9062C268.332 26.4805 267.787 27.0312 267.096 27.5586C266.416 28.0859 265.596 28.5195 264.635 28.8594C263.674 29.1875 262.578 29.3516 261.348 29.3516Z" fill="#2A2E34"/>
<path d="M44.5 7L48.1923 13.4614C48.3808 13.7913 48.7399 13.9859 49.1192 13.9636L57 13.5" stroke="#2A2E34" stroke-linecap="round"/>
<path d="M47.9359 13.196C46.9759 13.196 46.2079 13.388 45.6319 13.772C45.0799 14.156 44.8039 14.672 44.8039 15.32H39.7639C39.8119 13.328 40.5919 11.756 42.1039 10.604C43.6159 9.42797 45.6319 8.83997 48.1519 8.83997C50.7199 8.83997 52.7479 9.45197 54.2359 10.676L49.1599 13.3339C48.7978 13.2419 48.3898 13.196 47.9359 13.196Z" fill="#00A6A7"/>
<path fill-rule="evenodd" clip-rule="evenodd" d="M42 6.5771L53.8244 4.8648L44.7106 7.92133L42 6.5771ZM54.9068 12.9778L53.8244 4.8648L58.9844 15L54.9068 12.9778Z" fill="#FF9500"/>
<path d="M48.3763 9.73921L51.3504 11.2141L53.8244 4.8648L48.3763 9.73921Z" fill="#FF9500"/>
<path d="M48.3763 9.73921L53.8244 4.8648L44.7106 7.92133L48.3763 9.73921Z" fill="#FFA200"/>
<path d="M54.9068 12.9779L53.8244 4.8648L51.3504 11.2141L54.9068 12.9779Z" fill="#FFA200"/>
</svg>
