<svg xmlns="http://www.w3.org/2000/svg" viewBox="0 0 280.12 33.26"><defs><style>.cls-1,.cls-2{fill:none;stroke-miterlimit:10;stroke-width:0.5px;}.cls-1{stroke:#00a6a7;}.cls-2{stroke:#2a2e34;}</style></defs><g id="Layer_2" data-name="Layer 2"><g id="Layer_1-2" data-name="Layer 1"><g id="tranbaquan_me-outline"><path class="cls-1" d="M6.73,26.53A6.42,6.42,0,0,1,2,24.8,6.42,6.42,0,0,1,.25,20.05V1.15h5.4V6.73H13v4.86H5.65v8.46a1.43,1.43,0,0,0,1.62,1.62h5.4v4.86Z"/><path class="cls-1" d="M18.32,26.53V6.73h5v3.78A6.09,6.09,0,0,1,24.66,8,5.54,5.54,0,0,1,29,6.37a6.56,6.56,0,0,1,5.09,2,8,8,0,0,1,1.82,5.58v1.62H30.13V14.29a3.44,3.44,0,0,0-.88-2.52,3.17,3.17,0,0,0-2.36-.9,3,3,0,0,0-2.36.9,3.63,3.63,0,0,0-.81,2.52V26.53Z"/><path class="cls-1" d="M45.21,26.89a6.67,6.67,0,0,1-4.73-1.62,5.67,5.67,0,0,1-1.75-4.39,5.46,5.46,0,0,1,2.07-4.59,9.57,9.57,0,0,1,6-1.6h4.11V13.21a2.29,2.29,0,0,0-.81-1.84,3.31,3.31,0,0,0-2.18-.68,3.53,3.53,0,0,0-2.09.58,2.36,2.36,0,0,0-1,1.58H39.56a6.61,6.61,0,0,1,2.61-4.73,9.4,9.4,0,0,1,5.89-1.75,9.05,9.05,0,0,1,6,1.85,6.17,6.17,0,0,1,2.22,5V26.53H51.05V23.29l0-1.26a4.35,4.35,0,0,1-1.6,3.55A6.56,6.56,0,0,1,45.21,26.89Zm2-4a3.92,3.92,0,0,0,2.61-.85,2.74,2.74,0,0,0,1-2.21V17.75h-4a2.77,2.77,0,0,0-2,.7A2.65,2.65,0,0,0,45,22.23,3.39,3.39,0,0,0,47.23,22.93Z"/><path class="cls-1" d="M60.94,26.53V6.73h5.23v5a5.35,5.35,0,0,1,1.43-4,5.26,5.26,0,0,1,3.89-1.44,5.82,5.82,0,0,1,4.63,2,7.91,7.91,0,0,1,1.74,5.36V26.53h-5.4V14.29a3.31,3.31,0,0,0-.81-2.39,3,3,0,0,0-2.28-.85,2.87,2.87,0,0,0-2.23.85,3.35,3.35,0,0,0-.8,2.39V26.53Z"/><path class="cls-1" d="M93,26.89a5.15,5.15,0,0,1-3.85-1.42,5.42,5.42,0,0,1-1.41-4v5H82.54V.25h5.4v5.4l-.18,4.86v1.26a5.42,5.42,0,0,1,1.41-4A5.15,5.15,0,0,1,93,6.37a6,6,0,0,1,4.79,2.11,8.36,8.36,0,0,1,1.8,5.63v5a8.35,8.35,0,0,1-1.8,5.65A6,6,0,0,1,93,26.89Zm-1.94-4.68a3.05,3.05,0,0,0,2.32-.85A3.31,3.31,0,0,0,94.21,19V14.29a3.31,3.31,0,0,0-.81-2.39,3.58,3.58,0,0,0-4.63,0,3.28,3.28,0,0,0-.83,2.39V19a3.28,3.28,0,0,0,.83,2.39A3.06,3.06,0,0,0,91.08,22.21Z"/><path class="cls-1" d="M110,26.89a6.67,6.67,0,0,1-4.73-1.62,5.67,5.67,0,0,1-1.75-4.39,5.46,5.46,0,0,1,2.07-4.59,9.57,9.57,0,0,1,6-1.6h4.1V13.21a2.29,2.29,0,0,0-.81-1.84,3.28,3.28,0,0,0-2.17-.68,3.53,3.53,0,0,0-2.09.58,2.36,2.36,0,0,0-1,1.58h-5.22A6.61,6.61,0,0,1,107,8.12a9.4,9.4,0,0,1,5.89-1.75,9.07,9.07,0,0,1,6,1.85,6.16,6.16,0,0,1,2.21,5V26.53h-5.22V23.29l0-1.26a4.35,4.35,0,0,1-1.6,3.55A6.56,6.56,0,0,1,110,26.89Zm2-4a4,4,0,0,0,2.61-.85,2.73,2.73,0,0,0,1-2.21V17.75h-4a2.77,2.77,0,0,0-2,.7,2.38,2.38,0,0,0-.76,1.85,2.4,2.4,0,0,0,.83,1.93A3.39,3.39,0,0,0,112,22.93Z"/><path class="cls-1" d="M137.19,33v-5.4l.18-4.86a8,8,0,0,1-1.44,2.72,5,5,0,0,1-3.81,1.42,6,6,0,0,1-4.79-2.11,8.36,8.36,0,0,1-1.8-5.63v-5a8.36,8.36,0,0,1,1.8-5.63,6,6,0,0,1,4.79-2.11,5,5,0,0,1,3.81,1.42,8,8,0,0,1,1.44,2.72V6.73h5.22V33Zm-3.13-10.8a3,3,0,0,0,2.3-.85,3.23,3.23,0,0,0,.83-2.39V14.29a3.23,3.23,0,0,0-.83-2.39,3,3,0,0,0-2.3-.85,3.1,3.1,0,0,0-2.32.83,3.3,3.3,0,0,0-.81,2.41V19a3.31,3.31,0,0,0,.81,2.39A3,3,0,0,0,134.06,22.21Z"/><path class="cls-1" d="M155.77,26.89a8.65,8.65,0,0,1-6.25-2.16,7.8,7.8,0,0,1-2.25-5.9V6.73h5.4V18.79a3.73,3.73,0,0,0,.79,2.54,3.43,3.43,0,0,0,4.59,0,3.64,3.64,0,0,0,.81-2.54V6.73h5.4v12.1A7.75,7.75,0,0,1,162,24.75,8.71,8.71,0,0,1,155.77,26.89Z"/><path class="cls-1" d="M174.81,26.89a6.67,6.67,0,0,1-4.73-1.62,5.67,5.67,0,0,1-1.75-4.39,5.46,5.46,0,0,1,2.07-4.59,9.57,9.57,0,0,1,6-1.6h4.1V13.21a2.29,2.29,0,0,0-.81-1.84,3.28,3.28,0,0,0-2.17-.68,3.51,3.51,0,0,0-2.09.58,2.32,2.32,0,0,0-1,1.58h-5.22a6.61,6.61,0,0,1,2.61-4.73,9.4,9.4,0,0,1,5.89-1.75,9.07,9.07,0,0,1,6,1.85,6.16,6.16,0,0,1,2.21,5V26.53h-5.22V23.29l0-1.26a4.35,4.35,0,0,1-1.6,3.55A6.56,6.56,0,0,1,174.81,26.89Zm2-4a4,4,0,0,0,2.61-.85,2.73,2.73,0,0,0,1-2.21V17.75h-4a2.77,2.77,0,0,0-2,.7,2.38,2.38,0,0,0-.76,1.85,2.4,2.4,0,0,0,.83,1.93A3.39,3.39,0,0,0,176.83,22.93Z"/><path class="cls-1" d="M190.54,26.53V6.73h5.22v5a5.35,5.35,0,0,1,1.44-4,5.26,5.26,0,0,1,3.89-1.44,5.82,5.82,0,0,1,4.63,2,7.91,7.91,0,0,1,1.74,5.36V26.53h-5.4V14.29a3.31,3.31,0,0,0-.81-2.39,3,3,0,0,0-2.28-.85,2.91,2.91,0,0,0-2.24.85,3.39,3.39,0,0,0-.79,2.39V26.53Z"/><path class="cls-2" d="M219.38,26.39a3.57,3.57,0,0,1-2.65-1,3.5,3.5,0,0,1-1-2.61,3.51,3.51,0,0,1,1-2.64,3.64,3.64,0,0,1,2.65-1,3.6,3.6,0,0,1,2.66,1,3.54,3.54,0,0,1,1,2.64,3.38,3.38,0,0,1-3.64,3.59Z"/><path class="cls-2" d="M236.89,7.21l.16,2.11a6.7,6.7,0,0,1,5.47-2.45c2.45,0,4.13,1,5,2.87a6.54,6.54,0,0,1,5.72-2.87,5.69,5.69,0,0,1,4.6,1.78A8.13,8.13,0,0,1,259.39,14V26H254.3V14a3.59,3.59,0,0,0-.64-2.34,2.82,2.82,0,0,0-2.23-.74,3.16,3.16,0,0,0-3.16,2.16V26H243.2v-12a3.5,3.5,0,0,0-.65-2.37,2.86,2.86,0,0,0-2.21-.73,3.31,3.31,0,0,0-3.13,1.78V26h-5.08V7.21Z"/><path class="cls-2" d="M272.05,26.39a9.4,9.4,0,0,1-6.81-2.54,9,9,0,0,1-2.63-6.77v-.49a11.25,11.25,0,0,1,1.11-5.07,8.09,8.09,0,0,1,3.14-3.45,8.9,8.9,0,0,1,4.63-1.2,7.93,7.93,0,0,1,6.14,2.43,9.87,9.87,0,0,1,2.24,6.91v2.05H267.76a4.62,4.62,0,0,0,1.49,3,4.51,4.51,0,0,0,3.13,1.11,5.51,5.51,0,0,0,4.59-2.1l2.5,2.76a7.63,7.63,0,0,1-3.1,2.5A10.19,10.19,0,0,1,272.05,26.39Zm-.58-15.47a3.19,3.19,0,0,0-2.45,1,5.27,5.27,0,0,0-1.21,2.9h7.07v-.4a3.71,3.71,0,0,0-.91-2.59A3.31,3.31,0,0,0,271.47,10.92Z"/></g></g></g></svg>