<svg xmlns="http://www.w3.org/2000/svg" viewBox="0 0 279.62 32.76"><defs><style>.cls-1,.cls-2{fill:none;stroke-linecap:round;}.cls-1{stroke:#00a99d;stroke-miterlimit:10;stroke-width:1.75px;}.cls-2{stroke:#2a2e34;stroke-linejoin:round;stroke-width:0.75px;}.cls-3{fill:#00a99d;}.cls-4{fill:#ff9500;}.cls-5{fill:#ffa200;}.cls-6{fill:#2a2e34;}</style></defs><g id="Layer_2" data-name="Layer 2"><g id="Layer_1-2" data-name="Layer 1"><g id="tranbaquan_me-light"><line class="cls-1" x1="19.02" y1="2.88" x2="77.02" y2="2.88"/><path class="cls-2" d="M44.52,5.38s3.4,5.79,4.2,5.89,7.82.21,7.82.21"/><path class="cls-3" d="M6.48,26.28a6.42,6.42,0,0,1-4.75-1.73A6.42,6.42,0,0,1,0,19.8V.9H5.4V6.48h7.38v4.86H5.4V19.8A1.43,1.43,0,0,0,7,21.42h5.4v4.86Z"/><path class="cls-3" d="M18.07,26.28V6.48h5v3.78a6.09,6.09,0,0,1,1.3-2.52,5.54,5.54,0,0,1,4.32-1.62,6.56,6.56,0,0,1,5.09,2,8,8,0,0,1,1.82,5.58V15.3H29.88V14A3.44,3.44,0,0,0,29,11.52a3.17,3.17,0,0,0-2.36-.9,3,3,0,0,0-2.36.9A3.63,3.63,0,0,0,23.47,14V26.28Z"/><path class="cls-3" d="M45,26.64A6.67,6.67,0,0,1,40.23,25a5.67,5.67,0,0,1-1.75-4.39A5.46,5.46,0,0,1,40.55,16a9.57,9.57,0,0,1,6-1.6h4.11V13a2.29,2.29,0,0,0-.81-1.84,3.31,3.31,0,0,0-2.18-.68,3.53,3.53,0,0,0-2.09.58,2.36,2.36,0,0,0-1,1.58H39.31a6.61,6.61,0,0,1,2.61-4.73,9.4,9.4,0,0,1,5.89-1.75A9.05,9.05,0,0,1,53.8,8,6.17,6.17,0,0,1,56,13V26.28H50.8V23l0-1.26a4.35,4.35,0,0,1-1.6,3.55A6.56,6.56,0,0,1,45,26.64Zm2-4a3.92,3.92,0,0,0,2.61-.85,2.74,2.74,0,0,0,1-2.21V17.5h-4a2.77,2.77,0,0,0-2,.7A2.65,2.65,0,0,0,44.71,22,3.39,3.39,0,0,0,47,22.68Z"/><path class="cls-3" d="M60.69,26.28V6.48h5.23v5a5.35,5.35,0,0,1,1.43-4,5.26,5.26,0,0,1,3.89-1.44,5.82,5.82,0,0,1,4.63,2,7.91,7.91,0,0,1,1.74,5.36V26.28h-5.4V14a3.31,3.31,0,0,0-.81-2.39,3,3,0,0,0-2.28-.85,2.87,2.87,0,0,0-2.23.85,3.35,3.35,0,0,0-.8,2.39V26.28Z"/><path class="cls-3" d="M92.77,26.64a5.15,5.15,0,0,1-3.85-1.42,5.42,5.42,0,0,1-1.41-4v5H82.29V0h5.4V5.4l-.18,4.86v1.26a5.42,5.42,0,0,1,1.41-4,5.15,5.15,0,0,1,3.85-1.42,6,6,0,0,1,4.79,2.11,8.36,8.36,0,0,1,1.8,5.63v5a8.35,8.35,0,0,1-1.8,5.65A6,6,0,0,1,92.77,26.64ZM90.83,22a3.05,3.05,0,0,0,2.32-.85A3.31,3.31,0,0,0,94,18.72V14a3.31,3.31,0,0,0-.81-2.39,3.58,3.58,0,0,0-4.63,0A3.28,3.28,0,0,0,87.69,14v4.68a3.28,3.28,0,0,0,.83,2.39A3.06,3.06,0,0,0,90.83,22Z"/><path class="cls-3" d="M109.76,26.64A6.67,6.67,0,0,1,105,25a5.67,5.67,0,0,1-1.75-4.39A5.46,5.46,0,0,1,105.35,16a9.57,9.57,0,0,1,6-1.6h4.1V13a2.29,2.29,0,0,0-.81-1.84,3.28,3.28,0,0,0-2.17-.68,3.53,3.53,0,0,0-2.09.58,2.36,2.36,0,0,0-1,1.58h-5.22a6.61,6.61,0,0,1,2.61-4.73,9.4,9.4,0,0,1,5.89-1.75,9.07,9.07,0,0,1,6,1.85,6.16,6.16,0,0,1,2.21,5V26.28h-5.22V23l0-1.26a4.35,4.35,0,0,1-1.6,3.55A6.56,6.56,0,0,1,109.76,26.64Zm2-4a4,4,0,0,0,2.61-.85,2.73,2.73,0,0,0,1-2.21V17.5h-4a2.77,2.77,0,0,0-2,.7,2.38,2.38,0,0,0-.76,1.85,2.4,2.4,0,0,0,.83,1.93A3.39,3.39,0,0,0,111.78,22.68Z"/><path class="cls-3" d="M136.94,32.76v-5.4l.18-4.86a8,8,0,0,1-1.44,2.72,5,5,0,0,1-3.81,1.42,6,6,0,0,1-4.79-2.11,8.36,8.36,0,0,1-1.8-5.63v-5a8.36,8.36,0,0,1,1.8-5.63,6,6,0,0,1,4.79-2.11,5,5,0,0,1,3.81,1.42,8,8,0,0,1,1.44,2.72V6.48h5.22V32.76ZM133.81,22a3,3,0,0,0,2.3-.85,3.23,3.23,0,0,0,.83-2.39V14a3.23,3.23,0,0,0-.83-2.39,3,3,0,0,0-2.3-.85,3.1,3.1,0,0,0-2.32.83,3.3,3.3,0,0,0-.81,2.41v4.68a3.31,3.31,0,0,0,.81,2.39A3,3,0,0,0,133.81,22Z"/><path class="cls-3" d="M155.52,26.64a8.65,8.65,0,0,1-6.25-2.16,7.8,7.8,0,0,1-2.25-5.9V6.48h5.4V18.54a3.73,3.73,0,0,0,.79,2.54,3.43,3.43,0,0,0,4.59,0,3.64,3.64,0,0,0,.81-2.54V6.48H164v12.1a7.75,7.75,0,0,1-2.26,5.92A8.71,8.71,0,0,1,155.52,26.64Z"/><path class="cls-3" d="M174.56,26.64A6.67,6.67,0,0,1,169.83,25a5.67,5.67,0,0,1-1.75-4.39A5.46,5.46,0,0,1,170.15,16a9.57,9.57,0,0,1,6-1.6h4.1V13a2.29,2.29,0,0,0-.81-1.84,3.28,3.28,0,0,0-2.17-.68,3.51,3.51,0,0,0-2.09.58,2.32,2.32,0,0,0-1,1.58h-5.22a6.61,6.61,0,0,1,2.61-4.73,9.4,9.4,0,0,1,5.89-1.75,9.07,9.07,0,0,1,6,1.85,6.16,6.16,0,0,1,2.21,5V26.28h-5.22V23l0-1.26a4.35,4.35,0,0,1-1.6,3.55A6.56,6.56,0,0,1,174.56,26.64Zm2-4a4,4,0,0,0,2.61-.85,2.73,2.73,0,0,0,1-2.21V17.5h-4a2.77,2.77,0,0,0-2,.7,2.38,2.38,0,0,0-.76,1.85,2.4,2.4,0,0,0,.83,1.93A3.39,3.39,0,0,0,176.58,22.68Z"/><path class="cls-3" d="M190.29,26.28V6.48h5.22v5a5.35,5.35,0,0,1,1.44-4,5.26,5.26,0,0,1,3.89-1.44,5.82,5.82,0,0,1,4.63,2,7.91,7.91,0,0,1,1.74,5.36V26.28h-5.4V14a3.31,3.31,0,0,0-.81-2.39,3,3,0,0,0-2.28-.85,2.91,2.91,0,0,0-2.24.85,3.39,3.39,0,0,0-.79,2.39V26.28Z"/><path class="cls-2" d="M48.72,11.27c.8.11,7.82.21,7.82.21"/><polygon class="cls-4" points="53.37 2.32 55.05 10.88 58.33 12.47 53.37 2.32"/><polygon class="cls-4" points="42.32 4.7 45.6 6.29 53.37 2.32 42.32 4.7"/><polygon class="cls-5" points="45.6 6.29 48.87 7.88 53.37 2.32 45.6 6.29"/><polygon class="cls-5" points="51.78 9.29 55.05 10.88 53.37 2.32 51.78 9.29"/><polygon class="cls-4" points="48.87 7.88 51.78 9.29 53.37 2.32 48.87 7.88"/><path class="cls-6" d="M219.13,26.14a3.57,3.57,0,0,1-2.65-1,3.5,3.5,0,0,1-1-2.61,3.51,3.51,0,0,1,1-2.64,3.64,3.64,0,0,1,2.65-1,3.6,3.6,0,0,1,2.66,1,3.54,3.54,0,0,1,1,2.64,3.38,3.38,0,0,1-3.64,3.59Z"/><path class="cls-6" d="M236.64,7l.16,2.11a6.7,6.7,0,0,1,5.47-2.45c2.45,0,4.13,1,5,2.87A6.54,6.54,0,0,1,253,6.62a5.69,5.69,0,0,1,4.6,1.78,8.13,8.13,0,0,1,1.51,5.37v12h-5.09v-12a3.59,3.59,0,0,0-.64-2.34,2.82,2.82,0,0,0-2.23-.74A3.16,3.16,0,0,0,248,12.86V25.79H243v-12a3.5,3.5,0,0,0-.65-2.37,2.86,2.86,0,0,0-2.21-.73A3.31,3.31,0,0,0,237,12.48V25.79h-5.08V7Z"/><path class="cls-6" d="M271.8,26.14A9.4,9.4,0,0,1,265,23.6a9,9,0,0,1-2.63-6.77v-.49a11.25,11.25,0,0,1,1.11-5.07,8.09,8.09,0,0,1,3.14-3.45,8.9,8.9,0,0,1,4.63-1.2,7.93,7.93,0,0,1,6.14,2.43c1.5,1.63,2.24,3.93,2.24,6.91V18H267.51A4.62,4.62,0,0,0,269,21a4.51,4.51,0,0,0,3.13,1.11,5.51,5.51,0,0,0,4.59-2.1l2.5,2.76a7.63,7.63,0,0,1-3.1,2.5A10.19,10.19,0,0,1,271.8,26.14Zm-.58-15.47a3.19,3.19,0,0,0-2.45,1,5.27,5.27,0,0,0-1.21,2.9h7.07v-.4a3.71,3.71,0,0,0-.91-2.59A3.31,3.31,0,0,0,271.22,10.67Z"/><line class="cls-1" x1="108.64" y1="3.84" x2="116.4" y2="1.92"/></g></g></g></svg>